<?xml version="1.0" encoding="utf-8"?>
<!-- Generator: Adobe Illustrator 26.1.0, SVG Export Plug-In . SVG Version: 6.00 Build 0)  -->
<svg version="1.1" id="Layer_1" xmlns="http://www.w3.org/2000/svg" xmlns:xlink="http://www.w3.org/1999/xlink" x="0px" y="0px"
	 width="32px" height="32px" viewBox="0 0 32 32" style="enable-background:new 0 0 32 32;" xml:space="preserve">
<g>
	<path d="M10,9c0.1,0.4,0.5,0.7,0.9,0.7c0.1,0,0.2,0,0.3-0.1c0.5-0.2,0.8-0.7,0.6-1.3L9.3,0.7C9.2,0.2,8.6-0.1,8.1,0.1
		C7.5,0.2,7.3,0.8,7.4,1.3L10,9z"/>
	<path d="M14.1,9.3c0.1,0.1,0.3,0.1,0.4,0.1c0.4,0,0.7-0.2,0.9-0.6l2.3-5c0.2-0.5,0-1.1-0.5-1.3c-0.5-0.2-1.1,0-1.3,0.5l-2.3,5
		C13.3,8.5,13.6,9.1,14.1,9.3z"/>
	<path d="M6.7,10.6c0.2,0.2,0.4,0.2,0.7,0.2c0.3,0,0.6-0.1,0.8-0.3c0.4-0.4,0.3-1-0.1-1.4L4.6,6.1c-0.4-0.4-1-0.3-1.4,0.1
		c-0.4,0.4-0.3,1,0.1,1.4L6.7,10.6z"/>
	<path d="M27.3,21.4c1-1,1-2.6,0-3.5l0,0c-1-1-2.6-1-3.5,0l0,0c1-1,1-2.6,0-3.5l0,0c-0.8-0.8-2-0.9-3-0.4l4.5-4.5c1-1,1-2.6,0-3.5
		c-1-1-2.6-1-3.5,0L11.5,16.1c-0.8,0.8-2,0.8-2.8,0l-3.5-3.5c-1.1-1.1-2.9-1.1-4,0c-0.9,0.9-1.1,2.3-0.4,3.4l3.5,5.7l2.3,3.8
		c4.6,7.4,14.9,8.7,21.1,2.5l3.1-3.1c1-1,1-2.6,0-3.5C29.9,20.4,28.3,20.4,27.3,21.4"/>
</g>
</svg>
